<svg width="22" height="32" fill="none" xmlns="http://www.w3.org/2000/svg"><path d="M10.891 31.576c-1.776 0-3.402-.306-4.878-.918-1.476-.612-2.724-1.47-3.744-2.574a9.245 9.245 0 0 1-2.142-3.906l5.4-2.556c.084.96.348 1.812.792 2.556a4.851 4.851 0 0 0 1.854 1.728c.792.408 1.704.612 2.736.612 1.44 0 2.586-.396 3.438-1.188.864-.792 1.296-1.842 1.296-3.15 0-.936-.21-1.77-.63-2.502a4.597 4.597 0 0 0-1.71-1.746c-.708-.432-1.5-.648-2.376-.648-.504 0-.936.072-1.296.216v-3.888h1.35c.78 0 1.482-.192 2.106-.576A4.396 4.396 0 0 0 14.6 11.47a4.026 4.026 0 0 0 .576-2.088c0-.732-.192-1.392-.576-1.98a4.058 4.058 0 0 0-1.512-1.404c-.636-.348-1.35-.522-2.142-.522-.792 0-1.53.18-2.214.54-.672.36-1.23.852-1.674 1.476a4.894 4.894 0 0 0-.846 2.16l-4.626-2.16A8.2 8.2 0 0 1 3.44 3.964a9.032 9.032 0 0 1 3.312-2.358C8.071 1.042 9.505.76 11.053.76c1.812 0 3.426.372 4.842 1.116 1.428.744 2.55 1.758 3.366 3.042.816 1.272 1.224 2.724 1.224 4.356 0 .84-.126 1.626-.378 2.358a6.754 6.754 0 0 1-1.044 1.998 6.795 6.795 0 0 1-1.656 1.548 7.758 7.758 0 0 1 2.178 1.692 7.201 7.201 0 0 1 1.404 2.358c.324.876.486 1.854.486 2.934 0 1.8-.444 3.414-1.332 4.842-.888 1.416-2.13 2.532-3.726 3.348-1.584.816-3.426 1.224-5.526 1.224Z" fill="green"/></svg>