<svg width="24" height="31" fill="none" xmlns="http://www.w3.org/2000/svg"><path d="M.645 31v-2.988a200.322 200.322 0 0 0 6.138-4.86c1.752-1.464 3.246-2.79 4.482-3.978 1.236-1.188 2.238-2.268 3.006-3.24.768-.984 1.326-1.884 1.674-2.7.36-.828.54-1.608.54-2.34 0-.912-.216-1.74-.648-2.484a4.881 4.881 0 0 0-1.764-1.8c-.732-.444-1.56-.666-2.484-.666-.888 0-1.71.228-2.466.684-.744.444-1.398 1.104-1.962 1.98-.564.876-1.032 1.95-1.404 3.222L.861 9.544c.36-1.356.876-2.574 1.548-3.654A11.218 11.218 0 0 1 4.857 3.1a10.656 10.656 0 0 1 3.222-1.764C9.267.928 10.551.724 11.931.724c2.1 0 3.966.438 5.598 1.314 1.632.864 2.91 2.046 3.834 3.546.936 1.5 1.404 3.21 1.404 5.13 0 .96-.132 1.902-.396 2.826-.264.924-.678 1.86-1.242 2.808-.564.936-1.296 1.902-2.196 2.898-.9.984-1.986 2.022-3.258 3.114a71.607 71.607 0 0 1-4.41 3.456h12.042V31H.645Z" fill="green"/></svg>